<svg width="283" height="31" viewBox="0 0 283 31" fill="none" xmlns="http://www.w3.org/2000/svg">
<path d="M0 0H12.7298V25.9078H0V0ZM40.9607 0H53.6905V25.9078H40.9607V0ZM25.0795 5.39155L26.8971 1.69241L28.7008 5.25685C28.9254 5.63332 29.1086 5.60224 29.4679 5.42263L31.0194 4.65587L30.0104 9.63295C29.7997 10.6104 30.356 10.8971 30.9607 10.2339L33.1722 7.87145L33.7596 9.20812C33.9565 9.61222 34.2537 9.55351 34.6476 9.48098L36.9317 9.00088L36.1646 11.8849V11.9471C36.0747 12.3235 35.895 12.6378 36.3166 12.8209L37.1286 13.225L32.4016 17.2074C31.9213 17.7013 32.0872 17.8532 32.2668 18.4093L32.7022 19.746L28.3104 18.9516C27.7679 18.8169 27.3912 18.8169 27.3774 19.2521L27.5571 24.2879H26.2371L26.4168 19.2659C26.4168 18.772 26.0401 18.7858 25.1521 18.9689L21.0781 19.7494L21.6034 18.4128C21.7831 17.9016 21.8314 17.5562 21.4237 17.2108L16.6241 13.2837L17.5121 12.7415C17.7678 12.5446 17.7817 12.3374 17.6469 11.8987L16.745 8.98016L19.0602 9.47407C19.7063 9.62604 19.886 9.47407 20.0519 9.12868L20.698 7.80583L22.9855 10.3617C23.3898 10.8418 23.9634 10.5275 23.7838 9.83673L22.6849 4.44172L24.385 5.41918C24.6545 5.58497 24.9413 5.62987 25.1072 5.31556" fill="#FF0000"/>
<path d="M85.5001 10.9525H84.3045L84.0211 9.6987C83.0191 10.835 82.1103 11.2081 80.8076 11.2081C77.6113 11.2081 75.697 8.66944 75.697 5.62309C75.697 2.57674 77.6113 0.034668 80.8076 0.034668C83.14 0.034668 85.0958 1.27462 85.3791 3.67854H83.5581C83.3784 2.27625 82.1552 1.55784 80.7938 1.55784C78.5063 1.55784 77.5526 3.57492 77.5526 5.61964C77.5526 7.66435 78.5097 9.68143 80.7938 9.68143C82.7046 9.70906 83.7516 8.56237 83.7827 6.75252H80.9458V5.33642H85.5001V10.9525ZM90.8318 9.81613C89.3079 9.81613 88.6341 8.43457 88.6341 7.08409C88.6341 5.73362 89.3079 4.36587 90.8318 4.36587C92.3556 4.36587 93.0294 5.74743 93.0294 7.08409C93.0294 8.42076 92.3556 9.81613 90.8318 9.81613ZM90.8318 11.1597C93.3128 11.1597 94.733 9.45693 94.733 7.08409C94.733 4.71126 93.3093 3.0223 90.8318 3.0223C88.3542 3.0223 86.9306 4.72507 86.9306 7.08409C86.9306 9.44311 88.3508 11.1632 90.8318 11.1632V11.1597ZM95.3826 3.23299H97.2347L99.1836 9.15989H99.2147L101.098 3.22953H102.86L100.096 10.949H98.185L95.3826 3.23299ZM105.234 6.41058C105.23 6.14221 105.28 5.87581 105.381 5.62697C105.482 5.37814 105.631 5.15188 105.82 4.96145C106.009 4.77103 106.235 4.62026 106.483 4.51799C106.731 4.41572 106.997 4.364 107.266 4.36587C108.416 4.36587 109.149 5.33642 109.208 6.41058H105.234ZM110.911 7.5331C111.195 5.21898 109.702 3.0223 107.266 3.0223C104.965 3.0223 103.531 4.90468 103.531 7.09791C103.531 9.47074 104.892 11.1597 107.311 11.1597C109 11.1597 110.421 10.2202 110.808 8.53128H109.204C108.904 9.3844 108.309 9.81613 107.321 9.81613C105.901 9.81613 105.248 8.74197 105.248 7.52965L110.911 7.5331ZM112.211 3.23299H113.81V4.72507H113.842C114.001 4.24614 114.302 3.82686 114.705 3.52277C115.108 3.21869 115.593 3.04416 116.098 3.0223C116.313 3.02014 116.528 3.03515 116.741 3.0672V4.71126C116.498 4.67116 116.254 4.64579 116.008 4.63527C114.844 4.63527 113.918 5.57474 113.918 7.27751V10.9525H112.211V3.23299ZM117.47 3.23299H119.083V4.36932L119.115 4.40041C119.359 3.9767 119.712 3.62553 120.137 3.38279C120.562 3.14006 121.044 3.01446 121.533 3.01884C123.206 3.01884 124.267 3.91341 124.267 5.64727V10.9525H122.563V6.09973C122.532 4.89086 122.055 4.37278 121.053 4.37278C119.916 4.37278 119.184 5.26734 119.184 6.40367V10.9525H117.48V3.23299H117.47ZM126.046 3.23299H127.66V4.30715H127.705C127.943 3.89485 128.291 3.55658 128.71 3.3298C129.129 3.10302 129.603 2.99659 130.079 3.0223C131.018 3.0223 131.903 3.42641 132.245 4.30715C132.504 3.90306 132.862 3.57249 133.286 3.34741C133.71 3.12232 134.184 3.01034 134.664 3.0223C136.291 3.0223 137.249 3.74071 137.249 5.61964V10.9525H135.545V6.44167C135.545 5.21553 135.469 4.36932 134.142 4.36932C132.992 4.36932 132.497 5.13264 132.497 6.44167V10.9663H130.794V5.99611C130.794 4.93576 130.448 4.36932 129.436 4.36932C128.555 4.36932 127.746 5.08773 127.746 6.36913V10.9525H126.043V3.23299H126.046ZM140.376 6.41058C140.372 6.14221 140.422 5.87581 140.523 5.62697C140.623 5.37814 140.773 5.15188 140.962 4.96145C141.151 4.77103 141.376 4.62026 141.625 4.51799C141.873 4.41572 142.139 4.364 142.408 4.36587C143.558 4.36587 144.291 5.33642 144.35 6.41058H140.376ZM146.053 7.5331C146.336 5.21898 144.844 3.0223 142.408 3.0223C140.106 3.0223 138.672 4.90468 138.672 7.09791C138.672 9.47074 140.03 11.1597 142.452 11.1597C144.142 11.1597 145.562 10.2202 145.949 8.53128H144.336C144.039 9.3844 143.441 9.81613 142.452 9.81613C141.032 9.81613 140.379 8.74197 140.379 7.52965L146.053 7.5331ZM147.352 3.23299H148.966V4.36932L148.997 4.40041C149.242 3.9767 149.595 3.62553 150.02 3.38279C150.445 3.14006 150.926 3.01446 151.416 3.01884C153.088 3.01884 154.149 3.91341 154.149 5.64727V10.9525H152.432V6.09973C152.401 4.89086 151.924 4.37278 150.922 4.37278C149.785 4.37278 149.052 5.26734 149.052 6.40367V10.9525H147.352V3.23299ZM155.162 3.23299H156.444V0.915415H158.147V3.22953H159.685V4.50057H158.147V8.62799C158.147 9.31877 158.206 9.68834 158.969 9.68834C159.211 9.69812 159.452 9.67723 159.688 9.62617V10.9421C159.315 10.9697 158.956 11.0319 158.582 11.0319C156.803 11.0319 156.475 10.3411 156.444 9.05973V4.50057H155.162V3.23299ZM79.4876 24.7508C77.9638 24.7508 77.29 23.3693 77.29 22.0188C77.29 20.6683 77.9672 19.3006 79.4876 19.3006C81.008 19.3006 81.6853 20.6821 81.6853 22.0188C81.6853 23.3555 81.0184 24.7508 79.4876 24.7508ZM79.4876 26.0944C81.9686 26.0944 83.3853 24.3916 83.3853 22.0188C83.3853 19.646 81.9721 17.9535 79.4876 17.9535C77.0032 17.9535 75.5864 19.6563 75.5864 22.0153C75.5864 24.3744 77.0101 26.0944 79.4876 26.0944ZM84.0488 18.1642H85.3169V17.5253C85.3169 15.5531 86.3536 15.225 87.4524 15.225C87.8537 15.2094 88.2553 15.2442 88.648 15.3286V16.6583C88.3896 16.5918 88.1233 16.5616 87.8567 16.5685C87.3936 16.5685 87.0205 16.7343 87.0205 17.3733V18.1642H88.4717V19.4353H87.0205V25.8975H85.3169V19.4353H84.0488V18.1642ZM101.112 18.6132C100.797 17.3871 100.006 16.4925 98.451 16.4925C96.1635 16.4925 95.2098 18.5096 95.2098 20.5543C95.2098 22.599 96.167 24.6161 98.451 24.6161C100.11 24.6161 101.022 23.3762 101.17 21.8219H102.985C102.836 24.3744 101.029 26.1393 98.4441 26.1393C95.2478 26.1393 93.3335 23.6007 93.3335 20.5543C93.3335 17.508 95.2478 14.9694 98.4441 14.9694C100.863 14.9694 102.746 16.3129 102.971 18.6132H101.105H101.112ZM109.225 23.2898C109.225 24.364 108.061 24.7543 107.311 24.7543C106.713 24.7543 105.742 24.5298 105.742 23.7699C105.742 22.8754 106.399 22.606 107.124 22.4851C107.85 22.3642 108.693 22.3642 109.215 22.0222L109.225 23.2898ZM110.929 20.1813C110.929 18.5545 109.346 17.9432 107.819 17.9432C106.115 17.9432 104.425 18.5269 104.308 20.5129H106.012C106.094 19.6805 106.786 19.3006 107.729 19.3006C108.42 19.3006 109.329 19.4664 109.329 20.3367C109.329 21.3384 108.237 21.2037 107.014 21.4282C105.58 21.5905 104.042 21.9048 104.042 23.8459C104.042 25.3553 105.296 26.1013 106.685 26.1013C107.662 26.1284 108.615 25.7939 109.36 25.1618C109.495 25.8526 109.989 26.1013 110.673 26.1013C111.038 26.0831 111.399 26.0181 111.748 25.9079V24.7232C111.609 24.7442 111.469 24.7534 111.329 24.7508C111.015 24.7508 110.925 24.5885 110.925 24.1671L110.929 20.1813ZM112.763 18.1642H114.387V19.3006L114.419 19.3317C114.663 18.9079 115.016 18.5568 115.441 18.314C115.866 18.0713 116.348 17.9457 116.837 17.9501C118.51 17.9501 119.571 18.8446 119.571 20.5785V25.8975H117.843V21.0344C117.812 19.8256 117.335 19.3075 116.333 19.3075C115.196 19.3075 114.463 20.202 114.463 21.3384V25.8975H112.763V18.1642ZM126.105 23.2898C126.105 24.364 124.94 24.7543 124.194 24.7543C123.596 24.7543 122.625 24.5298 122.625 23.7699C122.625 22.8754 123.282 22.606 124.007 22.4851C124.733 22.3642 125.576 22.3642 126.098 22.0222L126.105 23.2898ZM127.808 20.1813C127.808 18.5545 126.226 17.9432 124.698 17.9432C122.995 17.9432 121.309 18.5269 121.188 20.5129H122.891C122.967 19.677 123.638 19.2902 124.595 19.2902C125.286 19.2902 126.195 19.456 126.195 20.3264C126.195 21.328 125.103 21.1933 123.88 21.4178C122.446 21.5801 120.908 21.8944 120.908 23.8355C120.908 25.3449 122.162 26.0909 123.551 26.0909C124.528 26.1181 125.481 25.7835 126.226 25.1515C126.361 25.8423 126.855 26.0909 127.539 26.0909C127.904 26.0727 128.265 26.0077 128.613 25.8975V24.7232C128.475 24.7442 128.335 24.7534 128.195 24.7508C127.881 24.7508 127.791 24.5885 127.791 24.1671L127.808 20.1813ZM130.974 22.0982C130.974 20.7167 131.54 19.2902 133.14 19.2902C134.453 19.2902 135.276 20.3057 135.276 22.0084C135.276 23.352 134.633 24.7405 133.109 24.7405C131.585 24.7405 130.974 23.4383 130.974 22.0982ZM136.924 15.225H135.22V19.1659H135.189C134.667 18.3162 133.589 17.957 132.618 17.957C130.929 17.957 129.273 19.1797 129.273 21.9739C129.273 24.288 130.452 26.0944 132.888 26.0944C133.859 26.0944 134.83 25.7214 135.279 24.8406H135.31V25.8768H136.924V15.225ZM143.541 23.2898C143.541 24.364 142.376 24.7543 141.627 24.7543C141.029 24.7543 140.058 24.5298 140.058 23.7699C140.058 22.8754 140.714 22.606 141.44 22.4851C142.166 22.3642 143.009 22.3642 143.531 22.0222L143.541 23.2898ZM145.244 20.1813C145.244 18.5545 143.662 17.9432 142.135 17.9432C140.431 17.9432 138.741 18.5269 138.624 20.5129H140.327C140.403 19.677 141.074 19.2902 142.031 19.2902C142.722 19.2902 143.631 19.456 143.631 20.3264C143.631 21.328 142.539 21.1933 141.316 21.4178C139.882 21.5801 138.344 21.8944 138.344 23.8355C138.344 25.3449 139.598 26.0909 140.987 26.0909C141.964 26.1184 142.917 25.7838 143.662 25.1515C143.797 25.8423 144.291 26.0909 144.975 26.0909C145.34 26.0727 145.701 26.0077 146.05 25.8975V24.7232C145.911 24.7442 145.771 24.7534 145.631 24.7508C145.317 24.7508 145.227 24.5885 145.227 24.1671L145.244 20.1813Z" fill="black"/>
<path d="M191.933 11.0525H190.734L190.45 9.79876C189.448 10.9351 188.539 11.3081 187.237 11.3081C184.04 11.3081 182.126 8.7695 182.126 5.72315C182.126 2.67681 184.044 0.138184 187.24 0.138184C189.573 0.138184 191.528 1.38159 191.812 3.79933H189.991C189.811 2.39704 188.588 1.67863 187.226 1.67863C184.939 1.67863 183.985 3.69571 183.985 5.74042C183.985 7.78513 184.942 9.80222 187.226 9.80222C189.137 9.8333 190.184 8.68315 190.215 6.87676H187.378V5.43993H191.919V11.0525H191.933ZM197.264 9.91965C195.741 9.91965 195.067 8.53809 195.067 7.18761C195.067 5.83713 195.741 4.46938 197.264 4.46938C198.788 4.46938 199.462 5.85095 199.462 7.18761C199.462 8.52427 198.788 9.91965 197.264 9.91965ZM197.264 11.2632C199.745 11.2632 201.166 9.56044 201.166 7.18761C201.166 4.81477 199.745 3.10854 197.264 3.10854C194.783 3.10854 193.367 4.8355 193.367 7.18761C193.367 9.53972 194.787 11.2632 197.264 11.2632ZM209.369 11.0525H207.696V9.98182H207.665C207.44 10.3667 207.12 10.6871 206.735 10.9122C206.35 11.1372 205.913 11.2593 205.468 11.2667C203.45 11.2667 202.586 10.2512 202.586 8.23414V3.33305H204.289V8.06836C204.289 9.42919 204.842 9.91965 205.768 9.91965C207.188 9.91965 207.665 9.01127 207.665 7.81277V3.32269H209.369V11.0525ZM210.398 3.33305H212.251L214.206 9.26341H214.231L216.114 3.33305H217.876L215.112 11.0525H213.194L210.398 3.33305ZM220.243 6.5141C220.239 6.24573 220.289 5.97932 220.39 5.73049C220.491 5.48165 220.64 5.25539 220.829 5.06497C221.018 4.87454 221.244 4.72378 221.492 4.62151C221.74 4.51924 222.006 4.46752 222.275 4.46938C223.425 4.46938 224.158 5.43993 224.217 6.5141H220.243ZM225.92 7.63316C226.207 5.31905 224.711 3.10854 222.275 3.10854C219.973 3.10854 218.539 4.99092 218.539 7.18415C218.539 9.55699 219.897 11.2459 222.32 11.2459C224.006 11.2459 225.43 10.3065 225.817 8.61753H224.203C223.906 9.47064 223.308 9.90238 222.32 9.90238C220.9 9.90238 220.246 8.82821 220.246 7.61589L225.92 7.63316ZM227.223 3.33305H228.823V4.8355H228.85C229.006 4.35231 229.305 3.92808 229.709 3.61949C230.112 3.3109 230.6 3.13265 231.107 3.10854C231.322 3.10647 231.537 3.12148 231.75 3.15344V4.7975C231.507 4.75732 231.263 4.73195 231.017 4.72152C229.853 4.72152 228.927 5.66098 228.927 7.36376V11.0525H227.223V3.33305ZM232.479 3.33305H234.092V4.46938L234.123 4.50047C234.368 4.07676 234.721 3.72559 235.146 3.48286C235.571 3.24012 236.053 3.11453 236.542 3.11891C238.218 3.11891 239.276 4.01347 239.276 5.74733V11.0525H237.572V6.21706C237.544 5.00819 237.064 4.49011 236.062 4.49011C234.925 4.49011 234.196 5.38467 234.196 6.521V11.0525H232.493L232.479 3.33305ZM242.385 6.5141C242.382 6.24573 242.432 5.97932 242.532 5.73049C242.633 5.48165 242.782 5.25539 242.971 5.06497C243.161 4.87454 243.386 4.72378 243.634 4.62151C243.883 4.51924 244.149 4.46752 244.417 4.46938C245.568 4.46938 246.3 5.43993 246.359 6.5141H242.385ZM248.063 7.63316C248.346 5.31905 246.853 3.10854 244.417 3.10854C242.116 3.10854 240.682 4.99092 240.682 7.18415C240.682 9.55699 242.043 11.2459 244.462 11.2459C246.152 11.2459 247.572 10.3065 247.959 8.61753H246.345C246.045 9.47064 245.447 9.90238 244.462 9.90238C243.042 9.90238 242.389 8.82821 242.389 7.61589L248.063 7.63316ZM249.362 3.33305H250.976V4.40721H251.021C251.257 3.99234 251.604 3.65128 252.024 3.42199C252.443 3.1927 252.917 3.08419 253.394 3.10854C254.338 3.10854 255.219 3.51265 255.561 4.3934C255.819 3.98931 256.178 3.65874 256.602 3.43365C257.025 3.20857 257.5 3.09659 257.98 3.10854C259.607 3.10854 260.564 3.82696 260.564 5.70588V11.0525H258.861V6.56245C258.861 5.33631 258.785 4.49011 257.458 4.49011C256.307 4.49011 255.813 5.25342 255.813 6.56245V11.0525H254.11V6.09617C254.11 5.03582 253.764 4.46938 252.752 4.46938C251.871 4.46938 251.065 5.1878 251.065 6.4692V11.0525H249.362V3.33305ZM263.692 6.5141C263.688 6.24631 263.738 5.98048 263.838 5.7321C263.938 5.48372 264.087 5.25778 264.275 5.06744C264.464 4.87711 264.688 4.7262 264.936 4.62352C265.183 4.52084 265.449 4.46844 265.717 4.46938C266.867 4.46938 267.6 5.43993 267.658 6.5141H263.692ZM269.369 7.63316C269.652 5.31905 268.156 3.10854 265.717 3.10854C263.415 3.10854 261.981 4.99092 261.981 7.18415C261.981 9.55699 263.339 11.2459 265.761 11.2459C267.448 11.2459 268.871 10.3065 269.258 8.61753H267.645C267.347 9.47064 266.75 9.90238 265.761 9.90238C264.341 9.90238 263.688 8.82821 263.688 7.61589L269.369 7.63316ZM270.668 3.33305H272.282V4.46938L272.313 4.50047C272.558 4.07676 272.911 3.72559 273.335 3.48286C273.76 3.24012 274.242 3.11453 274.732 3.11891C276.408 3.11891 277.465 4.01347 277.465 5.74733V11.0525H275.737V6.21706C275.71 5.00819 275.229 4.49011 274.227 4.49011C273.09 4.49011 272.358 5.38467 272.358 6.521V11.0525H270.654L270.668 3.33305ZM278.467 3.33305H279.752V1.0362H281.456V3.35032H282.994V4.62136H281.456V8.72805C281.456 9.41883 281.515 9.7884 282.278 9.7884C282.519 9.79866 282.761 9.77894 282.997 9.72968V11.0525C282.624 11.0802 282.265 11.1423 281.891 11.1423C280.115 11.1423 279.787 10.4516 279.756 9.17015V4.60409H278.471V3.33305H278.467ZM183.716 22.2121C183.716 20.8305 184.282 19.4041 185.882 19.4041C187.195 19.4041 188.018 20.4195 188.018 22.1223C188.018 23.4659 187.375 24.8543 185.851 24.8543C184.327 24.8543 183.716 23.5384 183.716 22.2121ZM189.662 15.325H187.969V19.2694H187.938C187.416 18.4197 186.338 18.0605 185.371 18.0605C183.681 18.0605 182.022 19.2832 182.022 22.0774C182.022 24.3915 183.204 26.1979 185.637 26.1979C186.608 26.1979 187.579 25.8249 188.028 24.9441H188.056V25.9803H189.669V15.325H189.662ZM198.298 25.9907H196.608V24.9131C196.383 25.2979 196.062 25.6183 195.677 25.8434C195.293 26.0684 194.856 26.1905 194.41 26.1979C192.392 26.1979 191.528 25.1825 191.528 23.1654V18.2677H193.232V22.9996C193.232 24.3604 193.785 24.8509 194.711 24.8509C196.131 24.8509 196.608 23.9425 196.608 22.744V18.2539H198.311V25.9907H198.298ZM211.684 18.7167C211.369 17.4906 210.578 16.5961 209.023 16.5961C206.736 16.5961 205.782 18.6131 205.782 20.6578C205.782 22.7026 206.739 24.7196 209.023 24.7196C210.682 24.7196 211.591 23.4831 211.743 21.9289H213.567C213.419 24.4813 211.611 26.2463 209.027 26.2463C205.83 26.2463 203.916 23.7076 203.916 20.6613C203.916 17.615 205.827 15.0763 209.027 15.0763C211.445 15.0763 213.329 16.4199 213.553 18.7202H211.684V18.7167ZM219.797 23.3899C219.797 24.4641 218.633 24.8543 217.886 24.8543C217.289 24.8543 216.318 24.6298 216.318 23.87C216.318 22.9754 216.974 22.706 217.7 22.5851C218.425 22.4642 219.269 22.4642 219.79 22.1223V23.3933L219.797 23.3899ZM221.501 20.2814C221.501 18.6546 219.918 18.0398 218.391 18.0398C216.687 18.0398 215.001 18.6235 214.88 20.6095H216.584C216.66 19.7736 217.334 19.3834 218.287 19.3834C218.978 19.3834 219.887 19.5491 219.887 20.4195C219.887 21.4212 218.795 21.2865 217.572 21.511C216.138 21.6733 214.6 21.9876 214.6 23.9287C214.6 25.4381 215.855 26.1841 217.244 26.1841C218.221 26.2116 219.173 25.877 219.918 25.2446C220.053 25.9354 220.547 26.1841 221.235 26.1841C221.6 26.1658 221.961 26.1008 222.309 25.9907V24.8267C222.171 24.8476 222.031 24.8569 221.891 24.8543C221.577 24.8543 221.487 24.692 221.487 24.2706V20.2986L221.501 20.2814ZM223.336 18.2677H224.942V19.4041L224.973 19.4352C225.218 19.0115 225.571 18.6603 225.996 18.4175C226.421 18.1748 226.903 18.0492 227.392 18.0536C229.068 18.0536 230.126 18.9482 230.126 20.682V25.9907H228.422V21.1345C228.394 19.9256 227.914 19.4075 226.912 19.4075C225.775 19.4075 225.046 20.3021 225.046 21.4384V25.9907H223.343L223.336 18.2677ZM236.691 23.3899C236.691 24.4641 235.526 24.8543 234.777 24.8543C234.179 24.8543 233.208 24.6298 233.208 23.87C233.208 22.9754 233.864 22.706 234.59 22.5851C235.316 22.4642 236.155 22.4504 236.691 22.105V23.3761V23.3899ZM238.394 20.2814C238.394 18.6546 236.812 18.0398 235.302 18.0398C233.598 18.0398 231.909 18.6235 231.791 20.6095H233.495C233.571 19.7736 234.241 19.3834 235.198 19.3834C235.889 19.3834 236.795 19.5491 236.795 20.4195C236.795 21.4212 235.703 21.2865 234.479 21.511C233.045 21.6733 231.504 21.9876 231.504 23.9287C231.504 25.4381 232.762 26.1841 234.148 26.1841C235.125 26.2116 236.077 25.877 236.822 25.2446C236.957 25.9354 237.451 26.1841 238.139 26.1841C238.504 26.166 238.865 26.101 239.213 25.9907V24.8267C239.075 24.8477 238.935 24.857 238.795 24.8543C238.481 24.8543 238.391 24.692 238.391 24.2706V20.2986L238.394 20.2814ZM241.549 22.2121C241.549 20.8305 242.116 19.4041 243.716 19.4041C245.029 19.4041 245.851 20.4195 245.851 22.1223C245.851 23.4659 245.209 24.8543 243.685 24.8543C242.161 24.8543 241.549 23.5384 241.549 22.2121ZM247.496 15.3285H245.792V19.2694H245.761C245.24 18.4197 244.165 18.0605 243.194 18.0605C241.504 18.0605 239.849 19.2832 239.849 22.0774C239.849 24.3915 241.031 26.1979 243.464 26.1979C244.435 26.1979 245.405 25.8249 245.855 24.9441H245.886V25.9803H247.499V15.325L247.496 15.3285ZM254.113 23.3899C254.113 24.4641 252.949 24.8543 252.202 24.8543C251.605 24.8543 250.634 24.6298 250.634 23.87C250.634 22.9754 251.29 22.706 252.016 22.5851C252.741 22.4642 253.584 22.4642 254.106 22.1223V23.3933L254.113 23.3899ZM255.817 20.2814C255.817 18.6546 254.234 18.0398 252.724 18.0398C251.021 18.0398 249.331 18.6235 249.213 20.6095H250.917C250.993 19.7736 251.663 19.3834 252.62 19.3834C253.312 19.3834 254.217 19.5491 254.217 20.4195C254.217 21.4212 253.125 21.2865 251.902 21.511C250.468 21.6733 248.927 21.9876 248.927 23.9287C248.927 25.4381 250.184 26.1841 251.57 26.1841C252.547 26.2112 253.499 25.8767 254.244 25.2446C254.379 25.9354 254.873 26.1841 255.558 26.1841C255.923 26.1659 256.284 26.1009 256.632 25.9907V24.8267C256.494 24.8477 256.354 24.8569 256.214 24.8543C255.9 24.8543 255.81 24.692 255.81 24.2706V20.2986L255.817 20.2814Z" fill="black"/>
</svg>
