<svg width="54" height="26" viewBox="0 0 54 26" fill="none" xmlns="http://www.w3.org/2000/svg">
<path d="M0 0H12.7298V25.9078H0V0ZM40.9607 0H53.6905V25.9078H40.9607V0ZM25.0795 5.39155L26.8971 1.69241L28.7008 5.25685C28.9254 5.63332 29.1086 5.60224 29.4679 5.42263L31.0194 4.65587L30.0104 9.63295C29.7997 10.6104 30.356 10.8971 30.9607 10.2339L33.1722 7.87145L33.7596 9.20812C33.9565 9.61222 34.2537 9.55351 34.6476 9.48098L36.9317 9.00088L36.1646 11.8849V11.9471C36.0747 12.3235 35.895 12.6378 36.3166 12.8209L37.1286 13.225L32.4016 17.2074C31.9213 17.7013 32.0872 17.8532 32.2668 18.4093L32.7022 19.746L28.3104 18.9516C27.7679 18.8169 27.3912 18.8169 27.3774 19.2521L27.5571 24.2879H26.2371L26.4168 19.2659C26.4168 18.772 26.0401 18.7858 25.1521 18.9689L21.0781 19.7494L21.6034 18.4128C21.7831 17.9016 21.8314 17.5562 21.4237 17.2108L16.6241 13.2837L17.5121 12.7415C17.7678 12.5446 17.7817 12.3374 17.6469 11.8987L16.745 8.98016L19.0602 9.47407C19.7063 9.62604 19.886 9.47407 20.0519 9.12868L20.698 7.80583L22.9855 10.3617C23.3898 10.8418 23.9634 10.5275 23.7837 9.83673L22.6849 4.44172L24.385 5.41918C24.6545 5.58497 24.9413 5.62987 25.1072 5.31556" fill="#FF0000"/>
</svg>
