<svg width="421" height="33" viewBox="0 0 421 33" fill="none" xmlns="http://www.w3.org/2000/svg">
<path d="M0 3H12.7298V28.9078H0V3ZM40.9607 3H53.6905V28.9078H40.9607V3ZM25.0795 8.39155L26.8971 4.69241L28.7008 8.25685C28.9254 8.63332 29.1086 8.60224 29.4679 8.42263L31.0194 7.65587L30.0104 12.6329C29.7997 13.6104 30.356 13.8971 30.9607 13.2339L33.1722 10.8715L33.7596 12.2081C33.9565 12.6122 34.2537 12.5535 34.6476 12.481L36.9317 12.0009L36.1646 14.8849V14.9471C36.0747 15.3235 35.895 15.6378 36.3166 15.8209L37.1286 16.225L32.4016 20.2074C31.9213 20.7013 32.0872 20.8532 32.2668 21.4093L32.7022 22.746L28.3104 21.9516C27.7679 21.8169 27.3912 21.8169 27.3774 22.2521L27.5571 27.2879H26.2371L26.4168 22.2659C26.4168 21.772 26.0401 21.7858 25.1521 21.9689L21.0781 22.7494L21.6034 21.4128C21.7831 20.9016 21.8314 20.5562 21.4237 20.2108L16.6241 16.2837L17.5121 15.7415C17.7678 15.5446 17.7817 15.3374 17.6469 14.8987L16.745 11.9802L19.0602 12.4741C19.7063 12.626 19.886 12.4741 20.0519 12.1287L20.698 10.8058L22.9855 13.3617C23.3898 13.8418 23.9634 13.5275 23.7837 12.8367L22.6849 7.44172L24.385 8.41918C24.6545 8.58497 24.9413 8.62987 25.1072 8.31556" fill="#FF0000"/>
<path d="M81.625 14.1758C80.1113 14.1758 78.8979 13.6851 77.9849 12.7036C77.0767 11.7222 76.6226 10.4453 76.6226 8.87305C76.6226 7.18359 77.0864 5.83594 78.0142 4.83008C78.9419 3.82422 80.2017 3.32129 81.7935 3.32129C83.2681 3.32129 84.4546 3.80957 85.353 4.78613C86.2563 5.7627 86.708 7.03955 86.708 8.6167C86.708 10.3306 86.2466 11.6855 85.3237 12.6816C84.4009 13.6777 83.168 14.1758 81.625 14.1758ZM81.7056 4.85205C80.7437 4.85205 79.96 5.21094 79.3545 5.92871C78.7539 6.64648 78.4536 7.59131 78.4536 8.76318C78.4536 9.93018 78.7466 10.8701 79.3325 11.583C79.9185 12.2959 80.6851 12.6523 81.6323 12.6523C82.6382 12.6523 83.4316 12.313 84.0127 11.6343C84.5938 10.9556 84.8843 10.0059 84.8843 8.78516C84.8843 7.53027 84.6011 6.56104 84.0347 5.87744C83.4731 5.19385 82.6968 4.85205 81.7056 4.85205ZM90.1724 12.894H90.1431V17.4497H88.4438V6.5H90.1431V7.81836H90.1724C90.7534 6.82227 91.603 6.32422 92.7212 6.32422C93.6733 6.32422 94.4155 6.65869 94.9478 7.32764C95.48 7.99658 95.7461 8.89502 95.7461 10.0229C95.7461 11.2729 95.4458 12.2739 94.8452 13.0259C94.2446 13.7778 93.4243 14.1538 92.3843 14.1538C91.4272 14.1538 90.6899 13.7339 90.1724 12.894ZM90.1284 9.93506V10.8652C90.1284 11.4121 90.3018 11.876 90.6484 12.2568C91 12.6377 91.4443 12.8281 91.9814 12.8281C92.6113 12.8281 93.1045 12.584 93.4609 12.0957C93.8223 11.6025 94.0029 10.9165 94.0029 10.0376C94.0029 9.30029 93.8345 8.72412 93.4976 8.30908C93.1655 7.88916 92.7139 7.6792 92.1426 7.6792C91.5371 7.6792 91.0488 7.89404 90.6777 8.32373C90.3115 8.75342 90.1284 9.29053 90.1284 9.93506ZM103.832 10.7114H98.7197C98.7393 11.4048 98.9517 11.9395 99.3569 12.3154C99.7671 12.6914 100.329 12.8794 101.042 12.8794C101.842 12.8794 102.577 12.6401 103.246 12.1616V13.5312C102.562 13.9609 101.659 14.1758 100.536 14.1758C99.4326 14.1758 98.5659 13.8364 97.936 13.1577C97.311 12.4741 96.9985 11.5146 96.9985 10.2793C96.9985 9.1123 97.3428 8.1626 98.0312 7.43018C98.7246 6.69287 99.584 6.32422 100.609 6.32422C101.635 6.32422 102.428 6.65381 102.99 7.31299C103.551 7.97217 103.832 8.8877 103.832 10.0596V10.7114ZM102.191 9.51025C102.187 8.8999 102.042 8.42627 101.759 8.08936C101.476 7.74756 101.085 7.57666 100.587 7.57666C100.099 7.57666 99.6841 7.75488 99.3423 8.11133C99.0054 8.46777 98.7979 8.93408 98.7197 9.51025H102.191ZM112.13 14H110.431V9.77393C110.431 8.37256 109.936 7.67188 108.944 7.67188C108.427 7.67188 108 7.86719 107.663 8.25781C107.326 8.64355 107.157 9.13184 107.157 9.72266V14H105.451V6.5H107.157V7.74512H107.187C107.748 6.79785 108.559 6.32422 109.618 6.32422C110.434 6.32422 111.056 6.59033 111.486 7.12256C111.916 7.6499 112.13 8.41406 112.13 9.41504V14ZM118.048 13.5825V11.7881C118.209 11.9346 118.4 12.0664 118.62 12.1836C118.844 12.3008 119.081 12.4009 119.33 12.4839C119.579 12.562 119.828 12.623 120.077 12.667C120.326 12.7109 120.556 12.7329 120.766 12.7329C121.498 12.7329 122.042 12.6108 122.399 12.3667C122.76 12.1226 122.941 11.7686 122.941 11.3047C122.941 11.0557 122.88 10.8408 122.758 10.6602C122.641 10.4746 122.475 10.3062 122.26 10.1548C122.045 10.0034 121.791 9.85938 121.498 9.72266C121.21 9.58105 120.9 9.43457 120.568 9.2832C120.211 9.09277 119.879 8.8999 119.572 8.70459C119.264 8.50928 118.996 8.29443 118.766 8.06006C118.542 7.8208 118.363 7.55225 118.231 7.25439C118.104 6.95654 118.041 6.60742 118.041 6.20703C118.041 5.71387 118.151 5.28662 118.371 4.92529C118.595 4.55908 118.888 4.25879 119.25 4.02441C119.616 3.78516 120.031 3.60937 120.495 3.49707C120.958 3.37988 121.432 3.32129 121.916 3.32129C123.014 3.32129 123.815 3.4458 124.318 3.69482V5.41602C123.722 4.98633 122.956 4.77148 122.018 4.77148C121.759 4.77148 121.5 4.7959 121.242 4.84473C120.988 4.89355 120.758 4.97412 120.553 5.08643C120.353 5.19873 120.189 5.34277 120.062 5.51855C119.936 5.69434 119.872 5.90674 119.872 6.15576C119.872 6.39014 119.921 6.59277 120.019 6.76367C120.116 6.93457 120.258 7.09082 120.443 7.23242C120.634 7.37402 120.863 7.51318 121.132 7.6499C121.405 7.78174 121.72 7.92578 122.077 8.08203C122.443 8.27246 122.787 8.47266 123.109 8.68262C123.437 8.89258 123.722 9.12451 123.966 9.37842C124.215 9.63232 124.411 9.91553 124.552 10.228C124.699 10.5356 124.772 10.8872 124.772 11.2827C124.772 11.8149 124.665 12.2642 124.45 12.6304C124.235 12.9966 123.944 13.2944 123.578 13.5239C123.217 13.7534 122.799 13.9194 122.326 14.022C121.852 14.1245 121.352 14.1758 120.824 14.1758C120.648 14.1758 120.431 14.1611 120.172 14.1318C119.918 14.1074 119.657 14.0684 119.389 14.0146C119.12 13.9658 118.866 13.9048 118.627 13.8315C118.388 13.7583 118.195 13.6753 118.048 13.5825ZM131.884 13.6558C131.283 14.0024 130.573 14.1758 129.752 14.1758C128.639 14.1758 127.741 13.8291 127.057 13.1357C126.374 12.4375 126.032 11.5342 126.032 10.4258C126.032 9.19043 126.398 8.19922 127.13 7.45215C127.868 6.7002 128.852 6.32422 130.082 6.32422C130.766 6.32422 131.369 6.44385 131.891 6.68311V8.26514C131.369 7.87451 130.812 7.6792 130.221 7.6792C129.503 7.6792 128.915 7.92334 128.456 8.41162C127.997 8.89502 127.768 9.52979 127.768 10.3159C127.768 11.0923 127.982 11.7051 128.412 12.1543C128.847 12.6035 129.428 12.8281 130.155 12.8281C130.766 12.8281 131.342 12.6108 131.884 12.1763V13.6558ZM134.433 4.92529C134.154 4.92529 133.915 4.83496 133.715 4.6543C133.52 4.47363 133.422 4.24414 133.422 3.96582C133.422 3.6875 133.52 3.45557 133.715 3.27002C133.915 3.08447 134.154 2.9917 134.433 2.9917C134.721 2.9917 134.965 3.08447 135.165 3.27002C135.365 3.45557 135.465 3.6875 135.465 3.96582C135.465 4.22949 135.365 4.45654 135.165 4.64697C134.965 4.83252 134.721 4.92529 134.433 4.92529ZM135.275 14H133.576V6.5H135.275V14ZM143.852 10.7114H138.739C138.759 11.4048 138.971 11.9395 139.376 12.3154C139.787 12.6914 140.348 12.8794 141.061 12.8794C141.862 12.8794 142.597 12.6401 143.266 12.1616V13.5312C142.582 13.9609 141.679 14.1758 140.556 14.1758C139.452 14.1758 138.585 13.8364 137.956 13.1577C137.331 12.4741 137.018 11.5146 137.018 10.2793C137.018 9.1123 137.362 8.1626 138.051 7.43018C138.744 6.69287 139.604 6.32422 140.629 6.32422C141.654 6.32422 142.448 6.65381 143.009 7.31299C143.571 7.97217 143.852 8.8877 143.852 10.0596V10.7114ZM142.211 9.51025C142.206 8.8999 142.062 8.42627 141.779 8.08936C141.496 7.74756 141.105 7.57666 140.607 7.57666C140.119 7.57666 139.704 7.75488 139.362 8.11133C139.025 8.46777 138.817 8.93408 138.739 9.51025H142.211ZM152.15 14H150.451V9.77393C150.451 8.37256 149.955 7.67188 148.964 7.67188C148.446 7.67188 148.019 7.86719 147.682 8.25781C147.345 8.64355 147.177 9.13184 147.177 9.72266V14H145.47V6.5H147.177V7.74512H147.206C147.768 6.79785 148.578 6.32422 149.638 6.32422C150.453 6.32422 151.076 6.59033 151.505 7.12256C151.935 7.6499 152.15 8.41406 152.15 9.41504V14ZM159.599 13.6558C158.998 14.0024 158.288 14.1758 157.467 14.1758C156.354 14.1758 155.456 13.8291 154.772 13.1357C154.088 12.4375 153.747 11.5342 153.747 10.4258C153.747 9.19043 154.113 8.19922 154.845 7.45215C155.583 6.7002 156.566 6.32422 157.797 6.32422C158.48 6.32422 159.083 6.44385 159.606 6.68311V8.26514C159.083 7.87451 158.527 7.6792 157.936 7.6792C157.218 7.6792 156.63 7.92334 156.171 8.41162C155.712 8.89502 155.482 9.52979 155.482 10.3159C155.482 11.0923 155.697 11.7051 156.127 12.1543C156.562 12.6035 157.143 12.8281 157.87 12.8281C158.48 12.8281 159.057 12.6108 159.599 12.1763V13.6558ZM167.641 10.7114H162.528C162.548 11.4048 162.76 11.9395 163.166 12.3154C163.576 12.6914 164.137 12.8794 164.85 12.8794C165.651 12.8794 166.386 12.6401 167.055 12.1616V13.5312C166.371 13.9609 165.468 14.1758 164.345 14.1758C163.241 14.1758 162.375 13.8364 161.745 13.1577C161.12 12.4741 160.807 11.5146 160.807 10.2793C160.807 9.1123 161.151 8.1626 161.84 7.43018C162.533 6.69287 163.393 6.32422 164.418 6.32422C165.443 6.32422 166.237 6.65381 166.798 7.31299C167.36 7.97217 167.641 8.8877 167.641 10.0596V10.7114ZM166 9.51025C165.995 8.8999 165.851 8.42627 165.568 8.08936C165.285 7.74756 164.894 7.57666 164.396 7.57666C163.908 7.57666 163.493 7.75488 163.151 8.11133C162.814 8.46777 162.606 8.93408 162.528 9.51025H166ZM79.0322 25.1914V29H77.2964V18.4971H80.4824C81.6885 18.4971 82.6235 18.7778 83.2876 19.3394C83.9517 19.9009 84.2837 20.6919 84.2837 21.7124C84.2837 22.7329 83.937 23.5679 83.2437 24.2173C82.5503 24.8667 81.6128 25.1914 80.4312 25.1914H79.0322ZM79.0322 19.9326V23.7705H80.1602C80.9072 23.7705 81.4761 23.5972 81.8667 23.2505C82.2573 22.9038 82.4526 22.4155 82.4526 21.7856C82.4526 20.5503 81.7349 19.9326 80.2993 19.9326H79.0322ZM92.4209 29H90.7217V27.8135H90.6924C90.1992 28.7217 89.4326 29.1758 88.3926 29.1758C86.6201 29.1758 85.7339 28.1113 85.7339 25.9824V21.5H87.4331V25.8066C87.4331 27.1543 87.9531 27.8281 88.9932 27.8281C89.4961 27.8281 89.9087 27.6426 90.231 27.2715C90.5581 26.9004 90.7217 26.4146 90.7217 25.814V21.5H92.4209V29ZM96.3687 27.916H96.3394V29H94.6401V17.8965H96.3394V22.8184H96.3687C96.9497 21.8223 97.7993 21.3242 98.9175 21.3242C99.8647 21.3242 100.604 21.6611 101.137 22.335C101.674 23.0039 101.942 23.9023 101.942 25.0303C101.942 26.2852 101.642 27.291 101.042 28.0479C100.441 28.7998 99.6206 29.1758 98.5806 29.1758C97.604 29.1758 96.8667 28.7559 96.3687 27.916ZM96.3247 24.9351V25.8652C96.3247 26.4121 96.498 26.876 96.8447 27.2568C97.1963 27.6377 97.6406 27.8281 98.1777 27.8281C98.8076 27.8281 99.3008 27.584 99.6572 27.0957C100.019 26.6025 100.199 25.9165 100.199 25.0376C100.199 24.3003 100.031 23.7241 99.6938 23.3091C99.3618 22.8892 98.9102 22.6792 98.3389 22.6792C97.7334 22.6792 97.2451 22.894 96.874 23.3237C96.5078 23.7534 96.3247 24.2905 96.3247 24.9351ZM105.385 29H103.678V17.8965H105.385V29ZM108.461 19.9253C108.183 19.9253 107.943 19.835 107.743 19.6543C107.548 19.4736 107.45 19.2441 107.45 18.9658C107.45 18.6875 107.548 18.4556 107.743 18.27C107.943 18.0845 108.183 17.9917 108.461 17.9917C108.749 17.9917 108.993 18.0845 109.193 18.27C109.394 18.4556 109.494 18.6875 109.494 18.9658C109.494 19.2295 109.394 19.4565 109.193 19.647C108.993 19.8325 108.749 19.9253 108.461 19.9253ZM109.303 29H107.604V21.5H109.303V29ZM116.898 28.6558C116.298 29.0024 115.587 29.1758 114.767 29.1758C113.654 29.1758 112.755 28.8291 112.072 28.1357C111.388 27.4375 111.046 26.5342 111.046 25.4258C111.046 24.1904 111.413 23.1992 112.145 22.4521C112.882 21.7002 113.866 21.3242 115.097 21.3242C115.78 21.3242 116.383 21.4438 116.906 21.6831V23.2651C116.383 22.8745 115.827 22.6792 115.236 22.6792C114.518 22.6792 113.93 22.9233 113.471 23.4116C113.012 23.895 112.782 24.5298 112.782 25.3159C112.782 26.0923 112.997 26.7051 113.427 27.1543C113.861 27.6035 114.442 27.8281 115.17 27.8281C115.78 27.8281 116.356 27.6108 116.898 27.1763V28.6558ZM124.347 29H122.699V27.8281H122.67C122.152 28.7266 121.393 29.1758 120.392 29.1758C119.655 29.1758 119.076 28.9756 118.656 28.5752C118.241 28.1748 118.034 27.645 118.034 26.9858C118.034 25.5698 118.849 24.7446 120.48 24.5103L122.707 24.1953C122.707 23.126 122.199 22.5913 121.183 22.5913C120.29 22.5913 119.484 22.8989 118.766 23.5142V22.0273C119.557 21.5586 120.47 21.3242 121.505 21.3242C123.4 21.3242 124.347 22.2568 124.347 24.1221V29ZM122.707 25.3159L121.132 25.5356C120.644 25.5991 120.275 25.7188 120.026 25.8945C119.782 26.0654 119.66 26.3682 119.66 26.8027C119.66 27.1201 119.772 27.3813 119.997 27.5864C120.226 27.7866 120.531 27.8867 120.912 27.8867C121.43 27.8867 121.857 27.7061 122.194 27.3447C122.536 26.9785 122.707 26.5195 122.707 25.9678V25.3159ZM130.382 28.9194C130.05 29.0854 129.613 29.1685 129.071 29.1685C127.616 29.1685 126.889 28.4702 126.889 27.0737V22.833H125.636V21.5H126.889V19.7642L128.588 19.2808V21.5H130.382V22.833H128.588V26.583C128.588 27.0273 128.668 27.3447 128.83 27.5352C128.991 27.7256 129.259 27.8208 129.635 27.8208C129.923 27.8208 130.172 27.7378 130.382 27.5718V28.9194ZM132.704 19.9253C132.426 19.9253 132.187 19.835 131.986 19.6543C131.791 19.4736 131.693 19.2441 131.693 18.9658C131.693 18.6875 131.791 18.4556 131.986 18.27C132.187 18.0845 132.426 17.9917 132.704 17.9917C132.992 17.9917 133.236 18.0845 133.437 18.27C133.637 18.4556 133.737 18.6875 133.737 18.9658C133.737 19.2295 133.637 19.4565 133.437 19.647C133.236 19.8325 132.992 19.9253 132.704 19.9253ZM133.546 29H131.847V21.5H133.546V29ZM139.098 29.1758C137.941 29.1758 137.016 28.8267 136.322 28.1284C135.634 27.4253 135.29 26.4951 135.29 25.3379C135.29 24.0781 135.648 23.0942 136.366 22.3862C137.089 21.6782 138.061 21.3242 139.281 21.3242C140.453 21.3242 141.366 21.6685 142.021 22.3569C142.675 23.0454 143.002 24 143.002 25.2207C143.002 26.417 142.648 27.3765 141.94 28.0991C141.237 28.8169 140.29 29.1758 139.098 29.1758ZM139.179 22.6792C138.515 22.6792 137.99 22.9111 137.604 23.375C137.218 23.8389 137.025 24.4785 137.025 25.2939C137.025 26.0801 137.221 26.7002 137.611 27.1543C138.002 27.6035 138.524 27.8281 139.179 27.8281C139.848 27.8281 140.36 27.606 140.717 27.1616C141.078 26.7173 141.259 26.085 141.259 25.2646C141.259 24.4395 141.078 23.8022 140.717 23.353C140.36 22.9038 139.848 22.6792 139.179 22.6792ZM151.417 29H149.718V24.7739C149.718 23.3726 149.223 22.6719 148.231 22.6719C147.714 22.6719 147.287 22.8672 146.95 23.2578C146.613 23.6436 146.444 24.1318 146.444 24.7227V29H144.738V21.5H146.444V22.7451H146.474C147.035 21.7979 147.846 21.3242 148.905 21.3242C149.721 21.3242 150.343 21.5903 150.773 22.1226C151.203 22.6499 151.417 23.4141 151.417 24.415V29ZM165.934 29H163.898L162.221 26.1875C162.069 25.9287 161.92 25.709 161.774 25.5283C161.632 25.3428 161.486 25.1914 161.334 25.0742C161.188 24.957 161.027 24.8716 160.851 24.8179C160.675 24.7642 160.478 24.7373 160.258 24.7373H159.555V29H157.819V18.4971H161.276C161.769 18.4971 162.223 18.5557 162.638 18.6729C163.053 18.79 163.415 18.9683 163.722 19.2075C164.03 19.4419 164.269 19.7373 164.44 20.0938C164.616 20.4453 164.704 20.8579 164.704 21.3315C164.704 21.7026 164.647 22.0444 164.535 22.3569C164.428 22.6646 164.271 22.9404 164.066 23.1846C163.866 23.4238 163.622 23.6289 163.334 23.7998C163.051 23.9707 162.731 24.1025 162.375 24.1953V24.2246C162.565 24.332 162.731 24.4517 162.873 24.5835C163.014 24.7104 163.148 24.8423 163.275 24.979C163.402 25.1157 163.527 25.272 163.649 25.4478C163.776 25.6187 163.915 25.8188 164.066 26.0483L165.934 29ZM159.555 19.9106V23.3237H161.005C161.273 23.3237 161.52 23.2822 161.745 23.1992C161.974 23.1162 162.172 22.9966 162.338 22.8403C162.504 22.6841 162.633 22.4937 162.726 22.269C162.819 22.0444 162.865 21.793 162.865 21.5146C162.865 21.0117 162.707 20.6187 162.389 20.3354C162.072 20.0522 161.615 19.9106 161.02 19.9106H159.555ZM172.929 25.7114H167.816C167.836 26.4048 168.048 26.9395 168.454 27.3154C168.864 27.6914 169.425 27.8794 170.138 27.8794C170.939 27.8794 171.674 27.6401 172.343 27.1616V28.5312C171.659 28.9609 170.756 29.1758 169.633 29.1758C168.529 29.1758 167.663 28.8364 167.033 28.1577C166.408 27.4741 166.095 26.5146 166.095 25.2793C166.095 24.1123 166.439 23.1626 167.128 22.4302C167.821 21.6929 168.681 21.3242 169.706 21.3242C170.731 21.3242 171.525 21.6538 172.086 22.313C172.648 22.9722 172.929 23.8877 172.929 25.0596V25.7114ZM171.288 24.5103C171.283 23.8999 171.139 23.4263 170.856 23.0894C170.573 22.7476 170.182 22.5767 169.684 22.5767C169.196 22.5767 168.781 22.7549 168.439 23.1113C168.102 23.4678 167.895 23.9341 167.816 24.5103H171.288ZM176.276 27.894H176.247V32.4497H174.547V21.5H176.247V22.8184H176.276C176.857 21.8223 177.707 21.3242 178.825 21.3242C179.777 21.3242 180.519 21.6587 181.051 22.3276C181.583 22.9966 181.85 23.895 181.85 25.0229C181.85 26.2729 181.549 27.2739 180.949 28.0259C180.348 28.7778 179.528 29.1538 178.488 29.1538C177.531 29.1538 176.793 28.7339 176.276 27.894ZM176.232 24.9351V25.8652C176.232 26.4121 176.405 26.876 176.752 27.2568C177.104 27.6377 177.548 27.8281 178.085 27.8281C178.715 27.8281 179.208 27.584 179.564 27.0957C179.926 26.6025 180.106 25.9165 180.106 25.0376C180.106 24.3003 179.938 23.7241 179.601 23.3091C179.269 22.8892 178.817 22.6792 178.246 22.6792C177.641 22.6792 177.152 22.894 176.781 23.3237C176.415 23.7534 176.232 24.2905 176.232 24.9351ZM186.911 29.1758C185.753 29.1758 184.828 28.8267 184.135 28.1284C183.446 27.4253 183.102 26.4951 183.102 25.3379C183.102 24.0781 183.461 23.0942 184.179 22.3862C184.901 21.6782 185.873 21.3242 187.094 21.3242C188.266 21.3242 189.179 21.6685 189.833 22.3569C190.487 23.0454 190.814 24 190.814 25.2207C190.814 26.417 190.46 27.3765 189.752 28.0991C189.049 28.8169 188.102 29.1758 186.911 29.1758ZM186.991 22.6792C186.327 22.6792 185.802 22.9111 185.417 23.375C185.031 23.8389 184.838 24.4785 184.838 25.2939C184.838 26.0801 185.033 26.7002 185.424 27.1543C185.814 27.6035 186.337 27.8281 186.991 27.8281C187.66 27.8281 188.173 27.606 188.529 27.1616C188.891 26.7173 189.071 26.085 189.071 25.2646C189.071 24.4395 188.891 23.8022 188.529 23.353C188.173 22.9038 187.66 22.6792 186.991 22.6792ZM192.082 28.7656V27.1909C192.716 27.6743 193.417 27.916 194.184 27.916C195.209 27.916 195.722 27.6133 195.722 27.0078C195.722 26.8369 195.678 26.6929 195.59 26.5757C195.502 26.4536 195.382 26.3462 195.231 26.2534C195.084 26.1606 194.909 26.0776 194.704 26.0044C194.503 25.9312 194.279 25.8481 194.03 25.7554C193.722 25.6333 193.444 25.5039 193.195 25.3672C192.951 25.2305 192.746 25.0767 192.58 24.9058C192.418 24.73 192.296 24.5322 192.213 24.3125C192.13 24.0928 192.089 23.8364 192.089 23.5435C192.089 23.1821 192.174 22.8647 192.345 22.5913C192.516 22.313 192.746 22.0811 193.034 21.8955C193.322 21.7051 193.649 21.5635 194.015 21.4707C194.381 21.373 194.76 21.3242 195.15 21.3242C195.844 21.3242 196.464 21.4292 197.011 21.6392V23.126C196.483 22.7646 195.878 22.584 195.194 22.584C194.979 22.584 194.784 22.606 194.608 22.6499C194.438 22.6938 194.291 22.7549 194.169 22.833C194.047 22.9111 193.952 23.0063 193.883 23.1187C193.815 23.2261 193.781 23.3457 193.781 23.4775C193.781 23.6387 193.815 23.7754 193.883 23.8877C193.952 24 194.052 24.1001 194.184 24.188C194.32 24.271 194.481 24.3491 194.667 24.4224C194.857 24.4907 195.075 24.5664 195.319 24.6494C195.641 24.7812 195.929 24.9155 196.183 25.0522C196.442 25.189 196.662 25.3452 196.842 25.521C197.023 25.6919 197.162 25.8921 197.26 26.1216C197.357 26.3462 197.406 26.6147 197.406 26.9272C197.406 27.3081 197.318 27.6401 197.143 27.9233C196.967 28.2065 196.732 28.4409 196.439 28.6265C196.146 28.812 195.807 28.9487 195.421 29.0366C195.041 29.1294 194.638 29.1758 194.213 29.1758C193.393 29.1758 192.682 29.0391 192.082 28.7656ZM199.882 19.9253C199.604 19.9253 199.364 19.835 199.164 19.6543C198.969 19.4736 198.871 19.2441 198.871 18.9658C198.871 18.6875 198.969 18.4556 199.164 18.27C199.364 18.0845 199.604 17.9917 199.882 17.9917C200.17 17.9917 200.414 18.0845 200.614 18.27C200.814 18.4556 200.915 18.6875 200.915 18.9658C200.915 19.2295 200.814 19.4565 200.614 19.647C200.414 19.8325 200.17 19.9253 199.882 19.9253ZM200.724 29H199.025V21.5H200.724V29ZM206.906 28.9194C206.574 29.0854 206.137 29.1685 205.595 29.1685C204.14 29.1685 203.412 28.4702 203.412 27.0737V22.833H202.16V21.5H203.412V19.7642L205.111 19.2808V21.5H206.906V22.833H205.111V26.583C205.111 27.0273 205.192 27.3447 205.353 27.5352C205.514 27.7256 205.783 27.8208 206.159 27.8208C206.447 27.8208 206.696 27.7378 206.906 27.5718V28.9194ZM211.608 29.1758C210.451 29.1758 209.525 28.8267 208.832 28.1284C208.144 27.4253 207.799 26.4951 207.799 25.3379C207.799 24.0781 208.158 23.0942 208.876 22.3862C209.599 21.6782 210.57 21.3242 211.791 21.3242C212.963 21.3242 213.876 21.6685 214.53 22.3569C215.185 23.0454 215.512 24 215.512 25.2207C215.512 26.417 215.158 27.3765 214.45 28.0991C213.747 28.8169 212.799 29.1758 211.608 29.1758ZM211.688 22.6792C211.024 22.6792 210.5 22.9111 210.114 23.375C209.728 23.8389 209.535 24.4785 209.535 25.2939C209.535 26.0801 209.73 26.7002 210.121 27.1543C210.512 27.6035 211.034 27.8281 211.688 27.8281C212.357 27.8281 212.87 27.606 213.227 27.1616C213.588 26.7173 213.769 26.085 213.769 25.2646C213.769 24.4395 213.588 23.8022 213.227 23.353C212.87 22.9038 212.357 22.6792 211.688 22.6792ZM221.598 23.1187C221.393 22.9575 221.098 22.877 220.712 22.877C220.209 22.877 219.789 23.104 219.452 23.5581C219.115 24.0122 218.947 24.6299 218.947 25.4111V29H217.248V21.5H218.947V23.0454H218.976C219.142 22.5181 219.396 22.1079 219.738 21.8149C220.084 21.5171 220.47 21.3682 220.895 21.3682C221.203 21.3682 221.437 21.4146 221.598 21.5073V23.1187ZM229.896 21.5L226.513 30.2012C225.81 31.7539 224.823 32.5303 223.554 32.5303C223.197 32.5303 222.899 32.4985 222.66 32.4351V31.0215C222.929 31.1094 223.173 31.1533 223.393 31.1533C224.027 31.1533 224.501 30.8408 224.813 30.2158L225.319 28.9854L222.338 21.5H224.22L226.007 26.9492C226.027 27.0176 226.071 27.1982 226.139 27.4912H226.176C226.2 27.3789 226.244 27.2031 226.308 26.9639L228.183 21.5H229.896Z" fill="black"/>
<path d="M255.032 10.1914V14H253.296V3.49707H256.482C257.688 3.49707 258.624 3.77783 259.288 4.33936C259.952 4.90088 260.284 5.69189 260.284 6.7124C260.284 7.73291 259.937 8.56787 259.244 9.21729C258.55 9.8667 257.613 10.1914 256.431 10.1914H255.032ZM255.032 4.93262V8.77051H256.16C256.907 8.77051 257.476 8.59717 257.867 8.25049C258.257 7.90381 258.453 7.41553 258.453 6.78564C258.453 5.55029 257.735 4.93262 256.299 4.93262H255.032ZM263.587 14H261.88V2.89648H263.587V14ZM271.563 14H269.915V12.8281H269.886C269.368 13.7266 268.609 14.1758 267.608 14.1758C266.871 14.1758 266.292 13.9756 265.872 13.5752C265.457 13.1748 265.25 12.645 265.25 11.9858C265.25 10.5698 266.065 9.74463 267.696 9.51025L269.922 9.19531C269.922 8.12598 269.415 7.59131 268.399 7.59131C267.505 7.59131 266.7 7.89893 265.982 8.51416V7.02734C266.773 6.55859 267.686 6.32422 268.721 6.32422C270.616 6.32422 271.563 7.25684 271.563 9.12207V14ZM269.922 10.3159L268.348 10.5356C267.859 10.5991 267.491 10.7188 267.242 10.8945C266.998 11.0654 266.875 11.3682 266.875 11.8027C266.875 12.1201 266.988 12.3813 267.212 12.5864C267.442 12.7866 267.747 12.8867 268.128 12.8867C268.646 12.8867 269.073 12.7061 269.41 12.3447C269.751 11.9785 269.922 11.5195 269.922 10.9678V10.3159ZM277.598 13.9194C277.266 14.0854 276.829 14.1685 276.287 14.1685C274.832 14.1685 274.104 13.4702 274.104 12.0737V7.83301H272.852V6.5H274.104V4.76416L275.804 4.28076V6.5H277.598V7.83301H275.804V11.583C275.804 12.0273 275.884 12.3447 276.045 12.5352C276.207 12.7256 276.475 12.8208 276.851 12.8208C277.139 12.8208 277.388 12.7378 277.598 12.5718V13.9194ZM283.304 4.28076C283.074 4.14893 282.813 4.08301 282.52 4.08301C281.695 4.08301 281.282 4.54932 281.282 5.48193V6.5H283.025V7.83301H281.29V14H279.59V7.83301H278.309V6.5H279.59V5.28418C279.59 4.49316 279.849 3.87061 280.367 3.4165C280.884 2.95752 281.531 2.72803 282.308 2.72803C282.728 2.72803 283.06 2.77441 283.304 2.86719V4.28076ZM287.559 14.1758C286.402 14.1758 285.477 13.8267 284.783 13.1284C284.095 12.4253 283.75 11.4951 283.75 10.3379C283.75 9.07812 284.109 8.09424 284.827 7.38623C285.55 6.67822 286.521 6.32422 287.742 6.32422C288.914 6.32422 289.827 6.66846 290.481 7.35693C291.136 8.04541 291.463 9 291.463 10.2207C291.463 11.417 291.109 12.3765 290.401 13.0991C289.698 13.8169 288.75 14.1758 287.559 14.1758ZM287.64 7.6792C286.976 7.6792 286.451 7.91113 286.065 8.375C285.679 8.83887 285.486 9.47852 285.486 10.2939C285.486 11.0801 285.682 11.7002 286.072 12.1543C286.463 12.6035 286.985 12.8281 287.64 12.8281C288.309 12.8281 288.821 12.606 289.178 12.1616C289.539 11.7173 289.72 11.085 289.72 10.2646C289.72 9.43945 289.539 8.80225 289.178 8.35303C288.821 7.90381 288.309 7.6792 287.64 7.6792ZM297.549 8.11865C297.344 7.95752 297.049 7.87695 296.663 7.87695C296.16 7.87695 295.74 8.104 295.403 8.55811C295.066 9.01221 294.898 9.62988 294.898 10.4111V14H293.199V6.5H294.898V8.04541H294.927C295.093 7.51807 295.347 7.10791 295.689 6.81494C296.036 6.51709 296.421 6.36816 296.846 6.36816C297.154 6.36816 297.388 6.41455 297.549 6.50732V8.11865ZM309.964 14H308.265V9.91309C308.265 9.12695 308.152 8.55811 307.928 8.20654C307.708 7.85498 307.334 7.6792 306.807 7.6792C306.363 7.6792 305.984 7.90137 305.672 8.3457C305.364 8.79004 305.21 9.32227 305.21 9.94238V14H303.504V9.77393C303.504 8.37744 303.011 7.6792 302.024 7.6792C301.565 7.6792 301.187 7.88916 300.889 8.30908C300.596 8.729 300.45 9.27344 300.45 9.94238V14H298.75V6.5H300.45V7.68652H300.479C301.021 6.77832 301.81 6.32422 302.845 6.32422C303.362 6.32422 303.814 6.46826 304.2 6.75635C304.59 7.03955 304.856 7.41309 304.998 7.87695C305.555 6.8418 306.385 6.32422 307.488 6.32422C309.139 6.32422 309.964 7.34229 309.964 9.37842V14ZM318.387 10.7114H313.274C313.294 11.4048 313.506 11.9395 313.912 12.3154C314.322 12.6914 314.883 12.8794 315.596 12.8794C316.397 12.8794 317.132 12.6401 317.801 12.1616V13.5312C317.117 13.9609 316.214 14.1758 315.091 14.1758C313.987 14.1758 313.121 13.8364 312.491 13.1577C311.866 12.4741 311.553 11.5146 311.553 10.2793C311.553 9.1123 311.897 8.1626 312.586 7.43018C313.279 6.69287 314.139 6.32422 315.164 6.32422C316.189 6.32422 316.983 6.65381 317.544 7.31299C318.106 7.97217 318.387 8.8877 318.387 10.0596V10.7114ZM316.746 9.51025C316.741 8.8999 316.597 8.42627 316.314 8.08936C316.031 7.74756 315.64 7.57666 315.142 7.57666C314.654 7.57666 314.239 7.75488 313.897 8.11133C313.56 8.46777 313.353 8.93408 313.274 9.51025H316.746ZM330.955 14H329.256V12.7256H329.227C328.68 13.6924 327.837 14.1758 326.7 14.1758C325.777 14.1758 325.037 13.8413 324.48 13.1724C323.929 12.4985 323.653 11.583 323.653 10.4258C323.653 9.18555 323.958 8.19189 324.568 7.44482C325.184 6.69775 326.001 6.32422 327.022 6.32422C328.033 6.32422 328.768 6.72949 329.227 7.54004H329.256V2.89648H330.955V14ZM329.278 10.5723V9.59082C329.278 9.05859 329.104 8.60693 328.758 8.23584C328.411 7.86475 327.969 7.6792 327.432 7.6792C326.797 7.6792 326.297 7.91602 325.931 8.38965C325.569 8.86328 325.389 9.52002 325.389 10.3599C325.389 11.1216 325.562 11.7246 325.909 12.1689C326.26 12.6084 326.731 12.8281 327.322 12.8281C327.903 12.8281 328.375 12.6157 328.736 12.1909C329.097 11.7612 329.278 11.2217 329.278 10.5723ZM339.524 10.7114H334.412C334.432 11.4048 334.644 11.9395 335.049 12.3154C335.459 12.6914 336.021 12.8794 336.734 12.8794C337.535 12.8794 338.27 12.6401 338.938 12.1616V13.5312C338.255 13.9609 337.352 14.1758 336.229 14.1758C335.125 14.1758 334.258 13.8364 333.628 13.1577C333.003 12.4741 332.691 11.5146 332.691 10.2793C332.691 9.1123 333.035 8.1626 333.724 7.43018C334.417 6.69287 335.276 6.32422 336.302 6.32422C337.327 6.32422 338.121 6.65381 338.682 7.31299C339.244 7.97217 339.524 8.8877 339.524 10.0596V10.7114ZM337.884 9.51025C337.879 8.8999 337.735 8.42627 337.452 8.08936C337.168 7.74756 336.778 7.57666 336.28 7.57666C335.792 7.57666 335.376 7.75488 335.035 8.11133C334.698 8.46777 334.49 8.93408 334.412 9.51025H337.884ZM347.002 12.894H346.973V17.4497H345.274V6.5H346.973V7.81836H347.002C347.583 6.82227 348.433 6.32422 349.551 6.32422C350.503 6.32422 351.246 6.65869 351.778 7.32764C352.31 7.99658 352.576 8.89502 352.576 10.0229C352.576 11.2729 352.276 12.2739 351.675 13.0259C351.075 13.7778 350.254 14.1538 349.214 14.1538C348.257 14.1538 347.52 13.7339 347.002 12.894ZM346.958 9.93506V10.8652C346.958 11.4121 347.132 11.876 347.479 12.2568C347.83 12.6377 348.274 12.8281 348.812 12.8281C349.441 12.8281 349.935 12.584 350.291 12.0957C350.652 11.6025 350.833 10.9165 350.833 10.0376C350.833 9.30029 350.665 8.72412 350.328 8.30908C349.996 7.88916 349.544 7.6792 348.973 7.6792C348.367 7.6792 347.879 7.89404 347.508 8.32373C347.142 8.75342 346.958 9.29053 346.958 9.93506ZM360.853 14H359.153V12.8135H359.124C358.631 13.7217 357.864 14.1758 356.824 14.1758C355.052 14.1758 354.166 13.1113 354.166 10.9824V6.5H355.865V10.8066C355.865 12.1543 356.385 12.8281 357.425 12.8281C357.928 12.8281 358.34 12.6426 358.663 12.2715C358.99 11.9004 359.153 11.4146 359.153 10.814V6.5H360.853V14ZM364.8 12.916H364.771V14H363.072V2.89648H364.771V7.81836H364.8C365.381 6.82227 366.231 6.32422 367.349 6.32422C368.296 6.32422 369.036 6.66113 369.568 7.33496C370.105 8.00391 370.374 8.90234 370.374 10.0303C370.374 11.2852 370.074 12.291 369.473 13.0479C368.873 13.7998 368.052 14.1758 367.012 14.1758C366.036 14.1758 365.298 13.7559 364.8 12.916ZM364.756 9.93506V10.8652C364.756 11.4121 364.93 11.876 365.276 12.2568C365.628 12.6377 366.072 12.8281 366.609 12.8281C367.239 12.8281 367.732 12.584 368.089 12.0957C368.45 11.6025 368.631 10.9165 368.631 10.0376C368.631 9.30029 368.462 8.72412 368.125 8.30908C367.793 7.88916 367.342 7.6792 366.771 7.6792C366.165 7.6792 365.677 7.89404 365.306 8.32373C364.939 8.75342 364.756 9.29053 364.756 9.93506ZM373.816 14H372.11V2.89648H373.816V14ZM376.893 4.92529C376.614 4.92529 376.375 4.83496 376.175 4.6543C375.979 4.47363 375.882 4.24414 375.882 3.96582C375.882 3.6875 375.979 3.45557 376.175 3.27002C376.375 3.08447 376.614 2.9917 376.893 2.9917C377.181 2.9917 377.425 3.08447 377.625 3.27002C377.825 3.45557 377.925 3.6875 377.925 3.96582C377.925 4.22949 377.825 4.45654 377.625 4.64697C377.425 4.83252 377.181 4.92529 376.893 4.92529ZM377.735 14H376.036V6.5H377.735V14ZM385.33 13.6558C384.729 14.0024 384.019 14.1758 383.199 14.1758C382.085 14.1758 381.187 13.8291 380.503 13.1357C379.82 12.4375 379.478 11.5342 379.478 10.4258C379.478 9.19043 379.844 8.19922 380.577 7.45215C381.314 6.7002 382.298 6.32422 383.528 6.32422C384.212 6.32422 384.815 6.44385 385.337 6.68311V8.26514C384.815 7.87451 384.258 7.6792 383.667 7.6792C382.95 7.6792 382.361 7.92334 381.902 8.41162C381.443 8.89502 381.214 9.52979 381.214 10.3159C381.214 11.0923 381.429 11.7051 381.858 12.1543C382.293 12.6035 382.874 12.8281 383.602 12.8281C384.212 12.8281 384.788 12.6108 385.33 12.1763V13.6558ZM392.779 14H391.131V12.8281H391.102C390.584 13.7266 389.825 14.1758 388.824 14.1758C388.086 14.1758 387.508 13.9756 387.088 13.5752C386.673 13.1748 386.465 12.645 386.465 11.9858C386.465 10.5698 387.281 9.74463 388.912 9.51025L391.138 9.19531C391.138 8.12598 390.63 7.59131 389.615 7.59131C388.721 7.59131 387.916 7.89893 387.198 8.51416V7.02734C387.989 6.55859 388.902 6.32422 389.937 6.32422C391.832 6.32422 392.779 7.25684 392.779 9.12207V14ZM391.138 10.3159L389.563 10.5356C389.075 10.5991 388.707 10.7188 388.458 10.8945C388.213 11.0654 388.091 11.3682 388.091 11.8027C388.091 12.1201 388.204 12.3813 388.428 12.5864C388.658 12.7866 388.963 12.8867 389.344 12.8867C389.861 12.8867 390.289 12.7061 390.625 12.3447C390.967 11.9785 391.138 11.5195 391.138 10.9678V10.3159ZM398.814 13.9194C398.482 14.0854 398.045 14.1685 397.503 14.1685C396.048 14.1685 395.32 13.4702 395.32 12.0737V7.83301H394.068V6.5H395.32V4.76416L397.02 4.28076V6.5H398.814V7.83301H397.02V11.583C397.02 12.0273 397.1 12.3447 397.261 12.5352C397.422 12.7256 397.691 12.8208 398.067 12.8208C398.355 12.8208 398.604 12.7378 398.814 12.5718V13.9194ZM401.136 4.92529C400.857 4.92529 400.618 4.83496 400.418 4.6543C400.223 4.47363 400.125 4.24414 400.125 3.96582C400.125 3.6875 400.223 3.45557 400.418 3.27002C400.618 3.08447 400.857 2.9917 401.136 2.9917C401.424 2.9917 401.668 3.08447 401.868 3.27002C402.068 3.45557 402.168 3.6875 402.168 3.96582C402.168 4.22949 402.068 4.45654 401.868 4.64697C401.668 4.83252 401.424 4.92529 401.136 4.92529ZM401.978 14H400.279V6.5H401.978V14ZM407.53 14.1758C406.373 14.1758 405.447 13.8267 404.754 13.1284C404.065 12.4253 403.721 11.4951 403.721 10.3379C403.721 9.07812 404.08 8.09424 404.798 7.38623C405.521 6.67822 406.492 6.32422 407.713 6.32422C408.885 6.32422 409.798 6.66846 410.452 7.35693C411.106 8.04541 411.434 9 411.434 10.2207C411.434 11.417 411.08 12.3765 410.372 13.0991C409.668 13.8169 408.721 14.1758 407.53 14.1758ZM407.61 7.6792C406.946 7.6792 406.421 7.91113 406.036 8.375C405.65 8.83887 405.457 9.47852 405.457 10.2939C405.457 11.0801 405.652 11.7002 406.043 12.1543C406.434 12.6035 406.956 12.8281 407.61 12.8281C408.279 12.8281 408.792 12.606 409.148 12.1616C409.51 11.7173 409.69 11.085 409.69 10.2646C409.69 9.43945 409.51 8.80225 409.148 8.35303C408.792 7.90381 408.279 7.6792 407.61 7.6792ZM419.849 14H418.15V9.77393C418.15 8.37256 417.654 7.67188 416.663 7.67188C416.146 7.67188 415.718 7.86719 415.381 8.25781C415.044 8.64355 414.876 9.13184 414.876 9.72266V14H413.169V6.5H414.876V7.74512H414.905C415.467 6.79785 416.277 6.32422 417.337 6.32422C418.152 6.32422 418.775 6.59033 419.205 7.12256C419.634 7.6499 419.849 8.41406 419.849 9.41504V14ZM259.925 29H258.226V27.7256H258.196C257.649 28.6924 256.807 29.1758 255.669 29.1758C254.747 29.1758 254.007 28.8413 253.45 28.1724C252.898 27.4985 252.623 26.583 252.623 25.4258C252.623 24.1855 252.928 23.1919 253.538 22.4448C254.153 21.6978 254.971 21.3242 255.992 21.3242C257.002 21.3242 257.737 21.7295 258.196 22.54H258.226V17.8965H259.925V29ZM258.248 25.5723V24.5908C258.248 24.0586 258.074 23.6069 257.728 23.2358C257.381 22.8647 256.939 22.6792 256.402 22.6792C255.767 22.6792 255.267 22.916 254.9 23.3896C254.539 23.8633 254.358 24.52 254.358 25.3599C254.358 26.1216 254.532 26.7246 254.878 27.1689C255.23 27.6084 255.701 27.8281 256.292 27.8281C256.873 27.8281 257.344 27.6157 257.706 27.1909C258.067 26.7612 258.248 26.2217 258.248 25.5723ZM268.494 25.7114H263.382C263.401 26.4048 263.614 26.9395 264.019 27.3154C264.429 27.6914 264.991 27.8794 265.704 27.8794C266.504 27.8794 267.239 27.6401 267.908 27.1616V28.5312C267.225 28.9609 266.321 29.1758 265.198 29.1758C264.095 29.1758 263.228 28.8364 262.598 28.1577C261.973 27.4741 261.661 26.5146 261.661 25.2793C261.661 24.1123 262.005 23.1626 262.693 22.4302C263.387 21.6929 264.246 21.3242 265.271 21.3242C266.297 21.3242 267.09 21.6538 267.652 22.313C268.213 22.9722 268.494 23.8877 268.494 25.0596V25.7114ZM266.854 24.5103C266.849 23.8999 266.705 23.4263 266.421 23.0894C266.138 22.7476 265.748 22.5767 265.25 22.5767C264.761 22.5767 264.346 22.7549 264.004 23.1113C263.667 23.4678 263.46 23.9341 263.382 24.5103H266.854ZM275.95 29H274.244V17.8965H275.95V29ZM283.926 29H282.278V27.8281H282.249C281.731 28.7266 280.972 29.1758 279.971 29.1758C279.234 29.1758 278.655 28.9756 278.235 28.5752C277.82 28.1748 277.613 27.645 277.613 26.9858C277.613 25.5698 278.428 24.7446 280.059 24.5103L282.286 24.1953C282.286 23.126 281.778 22.5913 280.762 22.5913C279.869 22.5913 279.063 22.8989 278.345 23.5142V22.0273C279.136 21.5586 280.049 21.3242 281.084 21.3242C282.979 21.3242 283.926 22.2568 283.926 24.1221V29ZM282.286 25.3159L280.711 25.5356C280.223 25.5991 279.854 25.7188 279.605 25.8945C279.361 26.0654 279.239 26.3682 279.239 26.8027C279.239 27.1201 279.351 27.3813 279.576 27.5864C279.805 27.7866 280.11 27.8867 280.491 27.8867C281.009 27.8867 281.436 27.7061 281.773 27.3447C282.115 26.9785 282.286 26.5195 282.286 25.9678V25.3159ZM289.668 28.7656V27.1909C290.303 27.6743 291.004 27.916 291.771 27.916C292.796 27.916 293.309 27.6133 293.309 27.0078C293.309 26.8369 293.265 26.6929 293.177 26.5757C293.089 26.4536 292.969 26.3462 292.818 26.2534C292.671 26.1606 292.496 26.0776 292.291 26.0044C292.09 25.9312 291.866 25.8481 291.617 25.7554C291.309 25.6333 291.031 25.5039 290.782 25.3672C290.538 25.2305 290.333 25.0767 290.167 24.9058C290.005 24.73 289.883 24.5322 289.8 24.3125C289.717 24.0928 289.676 23.8364 289.676 23.5435C289.676 23.1821 289.761 22.8647 289.932 22.5913C290.103 22.313 290.333 22.0811 290.621 21.8955C290.909 21.7051 291.236 21.5635 291.602 21.4707C291.968 21.373 292.347 21.3242 292.737 21.3242C293.431 21.3242 294.051 21.4292 294.598 21.6392V23.126C294.07 22.7646 293.465 22.584 292.781 22.584C292.566 22.584 292.371 22.606 292.195 22.6499C292.024 22.6938 291.878 22.7549 291.756 22.833C291.634 22.9111 291.539 23.0063 291.47 23.1187C291.402 23.2261 291.368 23.3457 291.368 23.4775C291.368 23.6387 291.402 23.7754 291.47 23.8877C291.539 24 291.639 24.1001 291.771 24.188C291.907 24.271 292.068 24.3491 292.254 24.4224C292.444 24.4907 292.662 24.5664 292.906 24.6494C293.228 24.7812 293.516 24.9155 293.77 25.0522C294.029 25.189 294.249 25.3452 294.429 25.521C294.61 25.6919 294.749 25.8921 294.847 26.1216C294.944 26.3462 294.993 26.6147 294.993 26.9272C294.993 27.3081 294.905 27.6401 294.729 27.9233C294.554 28.2065 294.319 28.4409 294.026 28.6265C293.733 28.812 293.394 28.9487 293.008 29.0366C292.627 29.1294 292.225 29.1758 291.8 29.1758C290.979 29.1758 290.269 29.0391 289.668 28.7656ZM301.98 28.6558C301.38 29.0024 300.669 29.1758 299.849 29.1758C298.736 29.1758 297.837 28.8291 297.154 28.1357C296.47 27.4375 296.128 26.5342 296.128 25.4258C296.128 24.1904 296.495 23.1992 297.227 22.4521C297.964 21.7002 298.948 21.3242 300.179 21.3242C300.862 21.3242 301.465 21.4438 301.988 21.6831V23.2651C301.465 22.8745 300.909 22.6792 300.318 22.6792C299.6 22.6792 299.012 22.9233 298.553 23.4116C298.094 23.895 297.864 24.5298 297.864 25.3159C297.864 26.0923 298.079 26.7051 298.509 27.1543C298.943 27.6035 299.524 27.8281 300.252 27.8281C300.862 27.8281 301.438 27.6108 301.98 27.1763V28.6558ZM304.529 19.9253C304.251 19.9253 304.012 19.835 303.812 19.6543C303.616 19.4736 303.519 19.2441 303.519 18.9658C303.519 18.6875 303.616 18.4556 303.812 18.27C304.012 18.0845 304.251 17.9917 304.529 17.9917C304.817 17.9917 305.062 18.0845 305.262 18.27C305.462 18.4556 305.562 18.6875 305.562 18.9658C305.562 19.2295 305.462 19.4565 305.262 19.647C305.062 19.8325 304.817 19.9253 304.529 19.9253ZM305.372 29H303.672V21.5H305.372V29ZM313.948 25.7114H308.836C308.855 26.4048 309.068 26.9395 309.473 27.3154C309.883 27.6914 310.445 27.8794 311.158 27.8794C311.958 27.8794 312.693 27.6401 313.362 27.1616V28.5312C312.679 28.9609 311.775 29.1758 310.652 29.1758C309.549 29.1758 308.682 28.8364 308.052 28.1577C307.427 27.4741 307.115 26.5146 307.115 25.2793C307.115 24.1123 307.459 23.1626 308.147 22.4302C308.841 21.6929 309.7 21.3242 310.726 21.3242C311.751 21.3242 312.544 21.6538 313.106 22.313C313.667 22.9722 313.948 23.8877 313.948 25.0596V25.7114ZM312.308 24.5103C312.303 23.8999 312.159 23.4263 311.875 23.0894C311.592 22.7476 311.202 22.5767 310.704 22.5767C310.215 22.5767 309.8 22.7549 309.458 23.1113C309.122 23.4678 308.914 23.9341 308.836 24.5103H312.308ZM322.247 29H320.547V24.7739C320.547 23.3726 320.052 22.6719 319.061 22.6719C318.543 22.6719 318.116 22.8672 317.779 23.2578C317.442 23.6436 317.273 24.1318 317.273 24.7227V29H315.567V21.5H317.273V22.7451H317.303C317.864 21.7979 318.675 21.3242 319.734 21.3242C320.55 21.3242 321.172 21.5903 321.602 22.1226C322.032 22.6499 322.247 23.4141 322.247 24.415V29ZM329.695 28.6558C329.095 29.0024 328.384 29.1758 327.564 29.1758C326.451 29.1758 325.552 28.8291 324.869 28.1357C324.185 27.4375 323.843 26.5342 323.843 25.4258C323.843 24.1904 324.209 23.1992 324.942 22.4521C325.679 21.7002 326.663 21.3242 327.894 21.3242C328.577 21.3242 329.18 21.4438 329.703 21.6831V23.2651C329.18 22.8745 328.624 22.6792 328.033 22.6792C327.315 22.6792 326.727 22.9233 326.268 23.4116C325.809 23.895 325.579 24.5298 325.579 25.3159C325.579 26.0923 325.794 26.7051 326.224 27.1543C326.658 27.6035 327.239 27.8281 327.967 27.8281C328.577 27.8281 329.153 27.6108 329.695 27.1763V28.6558ZM337.737 25.7114H332.625C332.645 26.4048 332.857 26.9395 333.262 27.3154C333.672 27.6914 334.234 27.8794 334.947 27.8794C335.748 27.8794 336.482 27.6401 337.151 27.1616V28.5312C336.468 28.9609 335.564 29.1758 334.441 29.1758C333.338 29.1758 332.471 28.8364 331.841 28.1577C331.216 27.4741 330.904 26.5146 330.904 25.2793C330.904 24.1123 331.248 23.1626 331.937 22.4302C332.63 21.6929 333.489 21.3242 334.515 21.3242C335.54 21.3242 336.333 21.6538 336.895 22.313C337.457 22.9722 337.737 23.8877 337.737 25.0596V25.7114ZM336.097 24.5103C336.092 23.8999 335.948 23.4263 335.665 23.0894C335.381 22.7476 334.991 22.5767 334.493 22.5767C334.004 22.5767 333.589 22.7549 333.248 23.1113C332.911 23.4678 332.703 23.9341 332.625 24.5103H336.097ZM346.812 29.1758C345.655 29.1758 344.729 28.8267 344.036 28.1284C343.348 27.4253 343.003 26.4951 343.003 25.3379C343.003 24.0781 343.362 23.0942 344.08 22.3862C344.803 21.6782 345.774 21.3242 346.995 21.3242C348.167 21.3242 349.08 21.6685 349.734 22.3569C350.389 23.0454 350.716 24 350.716 25.2207C350.716 26.417 350.362 27.3765 349.654 28.0991C348.951 28.8169 348.003 29.1758 346.812 29.1758ZM346.893 22.6792C346.229 22.6792 345.704 22.9111 345.318 23.375C344.932 23.8389 344.739 24.4785 344.739 25.2939C344.739 26.0801 344.935 26.7002 345.325 27.1543C345.716 27.6035 346.238 27.8281 346.893 27.8281C347.562 27.8281 348.074 27.606 348.431 27.1616C348.792 26.7173 348.973 26.085 348.973 25.2646C348.973 24.4395 348.792 23.8022 348.431 23.353C348.074 22.9038 347.562 22.6792 346.893 22.6792ZM358.992 29H357.293V27.8135H357.264C356.771 28.7217 356.004 29.1758 354.964 29.1758C353.191 29.1758 352.305 28.1113 352.305 25.9824V21.5H354.004V25.8066C354.004 27.1543 354.524 27.8281 355.564 27.8281C356.067 27.8281 356.48 27.6426 356.802 27.2715C357.129 26.9004 357.293 26.4146 357.293 25.814V21.5H358.992V29ZM367.671 21.5L364.771 29H362.933L360.171 21.5H362.017L363.68 26.7441C363.807 27.1299 363.885 27.4668 363.914 27.7549H363.936C363.98 27.3936 364.048 27.0664 364.141 26.7734L365.884 21.5H367.671ZM375.062 25.7114H369.949C369.969 26.4048 370.181 26.9395 370.586 27.3154C370.997 27.6914 371.558 27.8794 372.271 27.8794C373.072 27.8794 373.807 27.6401 374.476 27.1616V28.5312C373.792 28.9609 372.889 29.1758 371.766 29.1758C370.662 29.1758 369.795 28.8364 369.166 28.1577C368.541 27.4741 368.228 26.5146 368.228 25.2793C368.228 24.1123 368.572 23.1626 369.261 22.4302C369.954 21.6929 370.813 21.3242 371.839 21.3242C372.864 21.3242 373.658 21.6538 374.219 22.313C374.781 22.9722 375.062 23.8877 375.062 25.0596V25.7114ZM373.421 24.5103C373.416 23.8999 373.272 23.4263 372.989 23.0894C372.706 22.7476 372.315 22.5767 371.817 22.5767C371.329 22.5767 370.914 22.7549 370.572 23.1113C370.235 23.4678 370.027 23.9341 369.949 24.5103H373.421ZM381.031 23.1187C380.826 22.9575 380.53 22.877 380.145 22.877C379.642 22.877 379.222 23.104 378.885 23.5581C378.548 24.0122 378.379 24.6299 378.379 25.4111V29H376.68V21.5H378.379V23.0454H378.409C378.575 22.5181 378.829 22.1079 379.17 21.8149C379.517 21.5171 379.903 21.3682 380.328 21.3682C380.635 21.3682 380.87 21.4146 381.031 21.5073V23.1187ZM386.626 28.9194C386.294 29.0854 385.857 29.1685 385.315 29.1685C383.86 29.1685 383.133 28.4702 383.133 27.0737V22.833H381.88V21.5H383.133V19.7642L384.832 19.2808V21.5H386.626V22.833H384.832V26.583C384.832 27.0273 384.913 27.3447 385.074 27.5352C385.235 27.7256 385.503 27.8208 385.879 27.8208C386.167 27.8208 386.417 27.7378 386.626 27.5718V28.9194ZM394.354 25.7114H389.241C389.261 26.4048 389.473 26.9395 389.878 27.3154C390.289 27.6914 390.85 27.8794 391.563 27.8794C392.364 27.8794 393.099 27.6401 393.768 27.1616V28.5312C393.084 28.9609 392.181 29.1758 391.058 29.1758C389.954 29.1758 389.087 28.8364 388.458 28.1577C387.833 27.4741 387.52 26.5146 387.52 25.2793C387.52 24.1123 387.864 23.1626 388.553 22.4302C389.246 21.6929 390.105 21.3242 391.131 21.3242C392.156 21.3242 392.95 21.6538 393.511 22.313C394.073 22.9722 394.354 23.8877 394.354 25.0596V25.7114ZM392.713 24.5103C392.708 23.8999 392.564 23.4263 392.281 23.0894C391.998 22.7476 391.607 22.5767 391.109 22.5767C390.621 22.5767 390.206 22.7549 389.864 23.1113C389.527 23.4678 389.319 23.9341 389.241 24.5103H392.713Z" fill="black"/>
</svg>
