<svg width="91" height="98" viewBox="0 0 91 98" fill="none" xmlns="http://www.w3.org/2000/svg">
<path d="M45.6829 77.2407C37.4127 77.2407 31.8342 80.5349 30.0787 82.182L24.9423 76.9806C27.5647 74.4449 35.3841 69.3736 45.6829 69.3736C55.9816 69.3736 63.9311 74.4449 66.6185 76.9806L61.4171 82.182C59.6183 80.5349 53.9531 77.2407 45.6829 77.2407Z" fill="black"/>
<path d="M72.0799 71.5841C68.6557 68.2683 58.5823 61.6755 45.6829 61.8315C32.8672 61.9866 22.841 68.3153 19.3534 71.5217L14.1494 66.3177C18.0722 62.4817 29.8706 54.7316 45.6829 54.4196C61.4951 54.1075 73.3803 62.3083 77.3464 66.4478L72.0799 71.5841Z" fill="black"/>
<path d="M45.6829 46.6825C28.2582 46.6825 13.7593 56.0016 8.68798 60.6612L0.235718 52.6641L6.67244 48.8281L2.0562 33.1589L16.0349 36.4097L18.6356 28.4126L32.0292 43.2366L27.9981 13.9137L36.9055 18.2049L45.8129 0L54.8503 18.2049L63.4326 14.0438L61.4496 28.6402L59.4666 43.2366L72.7951 28.4776L75.4608 36.4097L89.5046 33.0938L85.0184 48.8931L91 52.5991L82.8078 61.0513C77.7365 56.3484 63.1075 46.6825 45.6829 46.6825Z" fill="black"/>
<path d="M45.6179 97.6561C49.2805 97.6561 52.2496 94.687 52.2496 91.0243C52.2496 87.3617 49.2805 84.3926 45.6179 84.3926C41.9552 84.3926 38.9861 87.3617 38.9861 91.0243C38.9861 94.687 41.9552 97.6561 45.6179 97.6561Z" fill="black"/>
</svg>
